<?xml version="1.0" encoding="UTF-8"?>
<svg version="1.1" xmlns="http://www.w3.org/2000/svg" width="1024" height="1024">
<path d="M0 0 C0.69675842 0.06563141 1.39351685 0.13126282 2.11138916 0.19888306 C30.34322348 2.92107482 58.10724216 10.3387003 83.625 22.8125 C84.26888672 23.12074707 84.91277344 23.42899414 85.57617188 23.74658203 C93.16443869 27.37955215 100.5284429 31.28634941 107.625 35.8125 C109.02298828 36.70388672 109.02298828 36.70388672 110.44921875 37.61328125 C121.41378581 44.76533218 131.56553548 52.60332985 141.1484375 61.5234375 C143.24182183 63.45833216 145.37582207 65.29826906 147.5625 67.125 C158.46214341 76.67051256 167.23658507 88.07804603 175.625 99.8125 C176.05522461 100.40192383 176.48544922 100.99134766 176.92871094 101.59863281 C202.35867411 136.59709111 214.04331603 180.18753158 216.10546875 222.93359375 C216.14489594 223.73146301 216.18432312 224.52933228 216.22494507 225.35137939 C216.41745706 229.32218221 216.58668904 233.2917612 216.71582031 237.26513672 C217.33633191 253.71227446 224.05157048 266.06485465 231.375 280.5 C232.25317069 282.24125086 233.13077843 283.98278575 234.0078125 285.72460938 C235.7281595 289.13931341 237.45068215 292.55290287 239.17553711 295.96533203 C250.10693372 317.59565061 250.10693372 317.59565061 255.0625 328.5625 C255.7112207 329.97789062 255.7112207 329.97789062 256.37304688 331.421875 C256.78490234 332.329375 257.19675781 333.236875 257.62109375 334.171875 C257.98388428 334.97077148 258.3466748 335.76966797 258.72045898 336.59277344 C261.35217141 343.050946 261.56308719 349.7897746 259.5 356.4375 C251.31082079 371.17802259 238.84775423 375.44641281 223.27734375 380.12890625 C222.55434082 380.34796631 221.83133789 380.56702637 221.08642578 380.79272461 C219.68285976 381.2138582 218.27633296 381.62528017 216.86669922 382.02563477 C212.07878102 383.44082409 212.07878102 383.44082409 208.625 386.8125 C207.90130159 389.96015397 207.90130159 389.96015397 207.59765625 393.64453125 C207.52400848 394.33630463 207.45036072 395.028078 207.3744812 395.74081421 C207.13324052 398.03445591 206.91059737 400.32952867 206.6875 402.625 C206.52092389 404.23296516 206.35301464 405.84079271 206.18383789 407.44848633 C205.73940488 411.70057184 205.31008801 415.95403399 204.88537598 420.20812988 C204.20650624 426.99841857 203.51161385 433.78704269 202.81027222 440.57504272 C202.57004262 442.92618004 202.33830535 445.27803231 202.10766602 447.63012695 C201.35266482 455.15402717 200.41602688 462.60816103 199.11328125 470.05859375 C198.99242661 470.75156052 198.87157196 471.44452728 198.74705505 472.15849304 C196.12855379 486.49624857 189.69828605 499.22370368 177.625 507.8125 C165.1064628 515.5378245 151.22775553 517.64780696 136.75 518.20703125 C135.25386939 518.27589658 133.75777651 518.3455855 132.26171875 518.41601562 C129.95672396 518.52224667 127.65198923 518.6239793 125.34619141 518.71118164 C108.78749611 519.35217491 90.64520094 521.14025985 78.625 533.8125 C71.83067983 542.18883099 67.90523257 551.90352408 66.05859375 562.47265625 C65.93079529 563.20351944 65.80299683 563.93438263 65.67132568 564.68739319 C64.3368935 572.82610988 63.85846362 580.98957736 63.48925781 589.22045898 C63.37270774 591.80074812 63.23822034 594.37968878 63.1015625 596.95898438 C63.0198112 598.60672044 62.93904271 600.25450563 62.859375 601.90234375 C62.80012848 603.05367043 62.80012848 603.05367043 62.73968506 604.22825623 C62.47483581 608.14481842 62.47483581 608.14481842 63.625 611.8125 C50.425 611.8125 37.225 611.8125 23.625 611.8125 C23.625 601.06624489 23.7761765 590.45914126 24.375 579.75 C24.41723694 578.99024872 24.45947388 578.23049744 24.50299072 577.44772339 C26.2341261 547.41028102 31.87969778 520.59992592 54.22265625 498.90625 C71.42568857 483.9130381 92.20537544 480.39652122 114.171875 479.21728516 C129.24581333 478.38804064 129.24581333 478.38804064 144.125 475.9375 C144.81650146 475.78821045 145.50800293 475.6389209 146.22045898 475.48510742 C150.67988629 474.38557654 154.11343372 472.77667506 157.625 469.8125 C160.09328628 464.27642275 160.38924607 458.31038875 160.9921875 452.34765625 C161.11173294 451.2176268 161.23127838 450.08759735 161.35444641 448.92332458 C161.60990477 446.49884468 161.86221015 444.07403086 162.11166382 441.64892578 C162.50191563 437.85638351 162.90096118 434.0648529 163.30200195 430.2734375 C164.51524016 418.75836296 165.69125949 407.24037422 166.80078125 395.71484375 C166.97593315 393.91982672 167.15122108 392.12482297 167.32666016 390.32983398 C167.64525483 387.06867331 167.94902916 383.80661689 168.24365234 380.54321289 C169.98179922 362.11502382 169.98179922 362.11502382 176.625 355.8125 C181.80967842 352.6624286 186.57690857 350.58789634 192.625 349.8125 C192.955 349.1525 193.285 348.4925 193.625 347.8125 C196.03125 347.1015625 196.03125 347.1015625 199.125 346.4375 C204.64956765 345.14887477 209.5552483 343.33457345 214.625 340.8125 C215.06690236 335.62014726 213.67222252 332.32096977 211.125 327.9375 C210.38218351 326.60393839 209.64135895 325.26926565 208.90234375 323.93359375 C208.33169189 322.91048096 208.33169189 322.91048096 207.74951172 321.86669922 C205.97317098 318.62177282 204.32711493 315.31559229 202.6875 312 C202.03259889 310.67836222 201.37765006 309.35674809 200.72265625 308.03515625 C200.38766113 307.35855957 200.05266602 306.68196289 199.70751953 305.98486328 C198.52305795 303.60792617 197.323266 301.23912024 196.12109375 298.87109375 C195.70529053 298.04907471 195.2894873 297.22705566 194.86108398 296.38012695 C194.04977143 294.7768913 193.23557315 293.17511204 192.41821289 291.57495117 C189.625 286.03724781 189.625 286.03724781 189.625 283.8125 C188.965 283.4825 188.305 283.1525 187.625 282.8125 C186.42340875 280.32644914 185.31545857 277.85614694 184.25 275.3125 C183.62526863 273.84884365 183.00027024 272.38530123 182.375 270.921875 C182.07464844 270.21353516 181.77429688 269.50519531 181.46484375 268.77539062 C180.14718953 265.69575692 178.7513307 262.65234935 177.3515625 259.609375 C175.9054525 256.03297392 175.4930768 252.74686062 175.4140625 248.90234375 C175.38755615 247.92491211 175.3610498 246.94748047 175.33374023 245.94042969 C175.29228882 244.36116699 175.29228882 244.36116699 175.25 242.75 C174.84051837 229.8936068 173.49364515 217.21756011 171.88452148 204.46191406 C171.6328112 201.89224336 171.57853216 199.39248791 171.625 196.8125 C170.635 196.4825 169.645 196.1525 168.625 195.8125 C169.285 195.8125 169.945 195.8125 170.625 195.8125 C163.17641017 167.63310043 152.87707044 142.89665905 135.5 119.375 C135.02135498 118.72442627 134.54270996 118.07385254 134.04956055 117.40356445 C130.5902306 112.81569223 126.76911878 108.78577986 122.625 104.8125 C120.18205537 102.42636804 117.90058889 100.18651349 115.875 97.4375 C113.27657809 94.40600777 110.45839104 92.20379198 107.2734375 89.8125 C105.44090404 88.42863992 103.6348711 87.0092405 101.8515625 85.5625 C95.27953832 80.29136492 88.47327764 75.71636626 81.25 71.375 C80.40590576 70.86686768 79.56181152 70.35873535 78.69213867 69.83520508 C75.05972217 67.68970905 71.4966288 65.68260875 67.5859375 64.08984375 C64.625 62.8125 64.625 62.8125 63.625 60.8125 C61.61551156 60.10741634 59.59968654 59.41836873 57.56640625 58.78515625 C54.81248193 57.87449602 52.13314873 56.83714249 49.43945312 55.76367188 C33.9614148 49.66909686 17.25703438 44.95349333 0.625 43.8125 C-0.31762695 43.74691895 -1.26025391 43.68133789 -2.23144531 43.61376953 C-33.54180439 41.61063671 -63.91636945 44.62636564 -93.375 55.8125 C-94.09236328 56.08320313 -94.80972656 56.35390625 -95.54882812 56.6328125 C-144.06028779 75.18768715 -183.0221578 112.51595453 -204.375 159.8125 C-212.66471075 178.40897897 -218.17480336 197.71342329 -221.375 217.8125 C-221.55289063 218.84632813 -221.73078125 219.88015625 -221.9140625 220.9453125 C-222.58048948 226.53652192 -222.74806435 232.12488915 -222.9375 237.75 C-222.9799585 238.94536377 -223.02241699 240.14072754 -223.06616211 241.37231445 C-223.36237743 250.19023317 -223.49659193 258.99032965 -223.375 267.8125 C-222.715 268.1425 -222.055 268.4725 -221.375 268.8125 C-221.705 269.8025 -222.035 270.7925 -222.375 271.8125 C-221.715 271.8125 -221.055 271.8125 -220.375 271.8125 C-220.045 271.1525 -219.715 270.4925 -219.375 269.8125 C-217.86651301 268.76311775 -216.31626632 267.77351296 -214.75 266.8125 C-210.3503591 264.06483154 -205.99720963 261.26123737 -201.6875 258.375 C-201.08558838 257.9728125 -200.48367676 257.570625 -199.86352539 257.15625 C-196.71442188 255.05082468 -193.56774644 252.94179436 -190.421875 250.83154297 C-187.17840957 248.65654229 -183.93298747 246.48448194 -180.6875 244.3125 C-179.6353833 243.60552979 -178.5832666 242.89855957 -177.49926758 242.17016602 C-176.50564209 241.50557373 -175.5120166 240.84098145 -174.48828125 240.15625 C-173.59923096 239.56005859 -172.71018066 238.96386719 -171.79418945 238.34960938 C-169.375 236.8125 -169.375 236.8125 -167.12133789 235.9387207 C-165.12886325 234.91956809 -165.12886325 234.91956809 -164.64892578 232.44018555 C-164.48626221 230.95965698 -164.48626221 230.95965698 -164.3203125 229.44921875 C-164.18399414 228.34497559 -164.04767578 227.24073242 -163.90722656 226.10302734 C-163.7728418 224.91402832 -163.63845703 223.7250293 -163.5 222.5 C-158.53051704 184.72892984 -141.31186236 150.48838351 -111.26171875 126.234375 C-108.34787058 124.0121406 -105.3959757 121.88635899 -102.375 119.8125 C-101.48296875 119.19890625 -100.5909375 118.5853125 -99.671875 117.953125 C-66.35695006 95.93799916 -28.83037863 91.21671954 9.86767578 98.21826172 C32.57351833 102.91190244 53.91119132 114.07442373 71.625 128.8125 C72.49640625 129.53050781 73.3678125 130.24851562 74.265625 130.98828125 C99.60285258 152.7798905 118.0304332 186.26503856 120.625 219.8125 C120.81897591 225.1252639 120.87065231 230.4343959 120.875 235.75 C120.87567474 236.48926727 120.87634949 237.22853455 120.87704468 237.99020386 C120.86122966 248.886455 120.46428509 259.23074674 117.625 269.8125 C117.45339355 270.46347656 117.28178711 271.11445313 117.10498047 271.78515625 C111.26974069 293.43655531 101.01293009 312.67494711 86.625 329.8125 C85.86058594 330.73160156 85.09617187 331.65070313 84.30859375 332.59765625 C78.97711097 338.76844223 73.07157862 343.83942507 66.625 348.8125 C65.21927734 349.92431641 65.21927734 349.92431641 63.78515625 351.05859375 C36.80090483 371.95780592 3.4925649 383.55525338 -30.93359375 380.5 C-35.97940651 379.84958305 -40.89741254 379.00134069 -45.8125 377.6875 C-50.82403079 376.4565977 -54.86905165 375.56926252 -59.57421875 377.90356445 C-66.03544325 381.89443855 -72.29244561 386.12614908 -78.5 390.5 C-80.53491889 391.92481822 -82.57007602 393.34929626 -84.60546875 394.7734375 C-86.08345947 395.80936035 -86.08345947 395.80936035 -87.59130859 396.86621094 C-91.31835158 399.47206839 -95.0621316 402.05287195 -98.8125 404.625 C-99.76008179 405.27601685 -99.76008179 405.27601685 -100.72680664 405.94018555 C-103.94118564 408.14745058 -107.16001635 410.34801271 -110.3828125 412.54296875 C-117.22182138 417.20753618 -124.02602376 421.92077762 -130.75 426.75 C-131.70531616 427.42289063 -131.70531616 427.42289063 -132.67993164 428.109375 C-135.8627249 430.42000874 -137.94630032 432.1406149 -139.375 435.8125 C-139.66802223 438.06554174 -139.66802223 438.06554174 -139.61791992 440.47900391 C-139.62099655 441.40162018 -139.62407318 442.32423645 -139.62724304 443.27481079 C-139.62005753 444.26951385 -139.61287201 445.26421692 -139.60546875 446.2890625 C-139.60501053 447.32831879 -139.60455231 448.36757507 -139.6040802 449.43832397 C-139.60105736 451.64574317 -139.59317011 453.85316022 -139.58081055 456.06054688 C-139.56283139 459.37638257 -139.5602992 462.69193368 -139.56054688 466.0078125 C-139.53940992 478.30813203 -139.22987406 490.54126978 -138.375 502.8125 C-133.93998918 501.4076469 -130.65729066 499.85261345 -126.875 497.125 C-125.73529017 496.31381681 -124.59458621 495.50402935 -123.453125 494.6953125 C-122.81568359 494.24188477 -122.17824219 493.78845703 -121.52148438 493.32128906 C-117.26036832 490.32610057 -112.93554937 487.42334833 -108.625 484.5 C-101.71530443 479.79876441 -94.82935654 475.06732777 -88 470.25 C-87.34161133 469.7861792 -86.68322266 469.3223584 -86.00488281 468.84448242 C-76.33237843 463.14212503 -76.33237843 463.14212503 -69.9519043 455 C-69.86851807 454.278125 -69.78513184 453.55625 -69.69921875 452.8125 C-69.59633545 452.01231445 -69.49345215 451.21212891 -69.38745117 450.38769531 C-69.28021729 449.53788086 -69.1729834 448.68806641 -69.0625 447.8125 C-67.39718568 436.16508932 -63.72479288 426.78150988 -54.37890625 419.19140625 C-42.88960627 410.97891197 -31.18048801 409.36419802 -17.375 410.8125 C-6.45251467 413.07847015 3.30538123 419.6317603 9.625 428.8125 C16.0027247 440.57659322 17.18642551 451.01417546 13.5859375 463.9296875 C10.12285231 474.31894306 3.19795974 482.12291025 -6.5625 487.25 C-19.46038841 492.91374341 -31.91957613 492.26487849 -45.375 488.8125 C-56.71336851 487.22512841 -67.16173081 498.1342841 -75.73583984 504.55957031 C-77.18603405 505.66805954 -78.60895979 506.8120256 -80.02734375 507.9609375 C-82.31762081 509.76724586 -84.63794308 511.29175182 -87.125 512.8125 C-94.33055625 517.34253469 -101.22375208 522.29540952 -108.15332031 527.23193359 C-111.71983212 529.769252 -115.29775222 532.29035213 -118.875 534.8125 C-123.13914179 537.82080811 -127.40204938 540.83081032 -131.66015625 543.84765625 C-139.27236172 549.23746566 -146.90273069 554.59710804 -154.60839844 559.8527832 C-157.81981543 562.04424965 -161.00914817 564.25746742 -164.16015625 566.53515625 C-165.05395996 567.17481323 -165.05395996 567.17481323 -165.96582031 567.82739258 C-167.58257368 568.98722742 -169.1919472 570.15732983 -170.80078125 571.328125 C-171.65027344 571.81796875 -172.49976563 572.3078125 -173.375 572.8125 C-174.365 572.4825 -175.355 572.1525 -176.375 571.8125 C-176.38308685 571.13426178 -176.39117371 570.45602356 -176.39950562 569.75723267 C-176.908603 527.0247299 -176.908603 527.0247299 -178.13409424 484.30828857 C-178.21003591 482.26354205 -178.28239347 480.21865854 -178.35076904 478.17364502 C-179.1622814 446.90200264 -179.1622814 446.90200264 -192.3125 419.3125 C-193.46241964 417.75924787 -194.61215337 416.20585809 -195.76171875 414.65234375 C-196.35259277 413.8619873 -196.9434668 413.07163086 -197.55224609 412.25732422 C-200.61088319 408.15483402 -203.61893258 404.01607565 -206.625 399.875 C-207.46599243 398.7303125 -207.46599243 398.7303125 -208.32397461 397.5625 C-208.84096924 396.85222656 -209.35796387 396.14195312 -209.890625 395.41015625 C-210.34727539 394.78633057 -210.80392578 394.16250488 -211.27441406 393.51977539 C-212.375 391.8125 -212.375 391.8125 -213.375 388.8125 C-214.035 388.8125 -214.695 388.8125 -215.375 388.8125 C-216.41990658 387.17361379 -217.40778729 385.4984055 -218.375 383.8125 C-219.99707709 381.42639092 -221.68750494 379.09015859 -223.375 376.75 C-223.81328125 376.13833984 -224.2515625 375.52667969 -224.703125 374.89648438 C-225.13109375 374.30029297 -225.5590625 373.70410156 -226 373.08984375 C-226.40734375 372.51862793 -226.8146875 371.94741211 -227.234375 371.35888672 C-228.18344571 370.0721971 -229.20841364 368.84192036 -230.25 367.62890625 C-231.375 365.8125 -231.375 365.8125 -231.34375 363.75 C-230.00721915 361.0769383 -228.45876228 360.30672397 -225.875 358.8125 C-220.73303169 355.70324738 -215.82674016 352.36785795 -210.9375 348.875 C-206.18789929 345.49435001 -201.43196138 342.14472315 -196.5625 338.9375 C-190.1948808 334.73926279 -183.97140941 330.34125132 -177.73266602 325.95458984 C-173.19052988 322.76629778 -168.63261232 319.61778855 -164 316.5625 C-159.12849939 313.34909102 -154.37916705 309.9896731 -149.64160156 306.58398438 C-145.86888266 303.87356741 -142.07348177 301.20124094 -138.25 298.5625 C-132.47199746 294.57275719 -126.69960105 290.57518665 -120.9375 286.5625 C-120.08462402 285.97178711 -119.23174805 285.38107422 -118.35302734 284.77246094 C-108.72020649 278.8760849 -108.72020649 278.8760849 -102.99609375 269.90234375 C-102.93550781 269.19207031 -102.87492188 268.48179687 -102.8125 267.75 C-102.73515625 266.95207031 -102.6578125 266.15414063 -102.578125 265.33203125 C-102.44533787 263.68496018 -102.33000662 262.0363642 -102.234375 260.38671875 C-101.5364465 250.44123763 -98.76963876 242.13775273 -91.7578125 234.8671875 C-86.41816907 230.26283923 -80.2808185 226.91300148 -73.703125 224.421875 C-65.96484636 221.3326595 -65.96484636 221.3326595 -61.296875 214.80078125 C-60.21333162 211.86228294 -59.37325009 208.9004314 -58.5859375 205.87109375 C-57.55459602 201.95153875 -55.80617455 199.07832929 -53.375 195.8125 C-52.818125 194.9875 -52.26125 194.1625 -51.6875 193.3125 C-43.54812472 184.51317538 -32.13109003 180.37756123 -20.34375 179.78515625 C-8.7218689 179.89219989 2.53193866 184.11581099 11.1015625 192.12109375 C20.86191949 202.95759267 23.14184093 214.55961734 22.625 228.8125 C22.37237396 231.83094558 22.01905014 234.80786772 21.625 237.8125 C20.965 237.8125 20.305 237.8125 19.625 237.8125 C19.563125 238.4725 19.50125 239.1325 19.4375 239.8125 C18.29524211 244.03006758 16.07234611 247.22940943 13.625 250.8125 C13.068125 251.658125 12.51125 252.50375 11.9375 253.375 C2.95535552 262.8426658 -8.14856263 267.16503071 -20.9375 268.0625 C-29.57933047 267.92773461 -38.05560517 265.79532688 -45.57421875 261.609375 C-48.97353341 260.10512296 -51.70064017 260.39085215 -55.375 260.8125 C-58.19280534 262.20135248 -58.19280534 262.20135248 -60.375 263.8125 C-61.035 263.8125 -61.695 263.8125 -62.375 263.8125 C-62.8390625 264.7715625 -62.8390625 264.7715625 -63.3125 265.75 C-64.375 267.8125 -64.375 267.8125 -65.375 268.8125 C-65.56934631 270.68625195 -65.75848905 272.56072385 -65.91821289 274.43774414 C-66.81849922 284.50458224 -68.522646 292.42854252 -76.0625 299.6875 C-82.53477968 305.01386787 -89.66517417 309.47895675 -96.67822266 314.04980469 C-101.67867236 317.31825 -106.65195157 320.62756686 -111.625 323.9375 C-112.65625 324.62344238 -113.6875 325.30938477 -114.75 326.01611328 C-120.77181041 330.03484074 -126.71945229 334.13048057 -132.58105469 338.37866211 C-137.04350372 341.605075 -141.59971936 344.66460744 -146.19165039 347.70141602 C-152.11968509 351.62680827 -158.000358 355.62022543 -163.875 359.625 C-165.27298828 360.57669067 -165.27298828 360.57669067 -166.69921875 361.54760742 C-168.46237686 362.75055575 -170.22278183 363.95755249 -171.97998047 365.16918945 C-173.49493612 366.20865596 -175.01902189 367.23504471 -176.55517578 368.24291992 C-180.64739587 370.9170375 -180.64739587 370.9170375 -182.25 375.5 C-181.5734872 382.80357693 -175.82448988 388.80501867 -170.4375 393.3125 C-169.426875 394.1375 -168.41625 394.9625 -167.375 395.8125 C-167.375 396.4725 -167.375 397.1325 -167.375 397.8125 C-162.46210637 399.38462596 -157.971585 399.59660964 -153.296875 397.30078125 C-151.72679687 396.22376953 -151.72679687 396.22376953 -150.125 395.125 C-149.24533569 394.53138672 -149.24533569 394.53138672 -148.34790039 393.92578125 C-147.05325511 393.04853161 -145.76384154 392.16352501 -144.47900391 391.27197266 C-142.2293131 389.71144218 -139.96563811 388.17284228 -137.69921875 386.63671875 C-129.62814148 381.15461532 -121.60705051 375.59954638 -113.58984375 370.0390625 C-109.98135448 367.5398658 -106.36687202 365.04954275 -102.75 362.5625 C-101.76580078 361.88537964 -101.76580078 361.88537964 -100.76171875 361.19458008 C-96.95036945 358.57473377 -93.13245383 355.9648369 -89.30859375 353.36328125 C-88.45668457 352.78288086 -87.60477539 352.20248047 -86.72705078 351.60449219 C-85.07164436 350.47712254 -83.41512132 349.35139026 -81.75732422 348.22753906 C-78.56641828 346.05330683 -75.4845582 343.90352448 -72.51171875 341.43359375 C-70.375 339.8125 -70.375 339.8125 -67.375 339.8125 C-67.375 339.1525 -67.375 338.4925 -67.375 337.8125 C-66.715 337.8125 -66.055 337.8125 -65.375 337.8125 C-65.20484375 336.8946875 -65.0346875 335.976875 -64.859375 335.03125 C-62.93669381 325.29511969 -61.20784379 317.40857898 -53.375 310.8125 C-52.715 310.8125 -52.055 310.8125 -51.375 310.8125 C-51.375 310.1525 -51.375 309.4925 -51.375 308.8125 C-38.52337278 301.26277983 -28.72297638 298.01973521 -13.8671875 301.67578125 C0.05148203 305.78163023 0.05148203 305.78163023 4.625 310.8125 C5.285 311.1425 5.945 311.4725 6.625 311.8125 C7.91076597 314.27639995 9.10213669 316.72330088 10.25 319.25 C10.57484375 319.94416016 10.8996875 320.63832031 11.234375 321.35351562 C13.625 326.54157366 13.625 326.54157366 13.625 328.8125 C25.62318692 330.00700976 34.70191499 325.127966 43.90063477 317.81225586 C65.3583377 300.15089092 78.3179947 276.40092778 81.16040039 248.77075195 C83.44860236 223.12320007 76.90129179 196.23696119 60.625 175.8125 C41.5011899 153.05673535 17.38284699 139.00768833 -12.125 135.0625 C-13.53974163 134.95116717 -14.95705059 134.87001823 -16.375 134.8125 C-17.34308594 134.77253906 -18.31117188 134.73257813 -19.30859375 134.69140625 C-45.36405064 134.15966223 -70.78721635 142.5354837 -90.375 159.8125 C-91.24253906 160.56917969 -92.11007812 161.32585937 -93.00390625 162.10546875 C-115.27480717 182.91255459 -123.29005613 210.77106796 -126.8984375 240.03125 C-127.05570313 241.2584375 -127.21296875 242.485625 -127.375 243.75 C-127.49875 244.81089844 -127.6225 245.87179687 -127.75 246.96484375 C-128.92060068 252.29839309 -131.4756164 255.25510642 -135.953125 258.23046875 C-137.31062866 259.1436084 -137.31062866 259.1436084 -138.69555664 260.07519531 C-140.1456311 261.02797363 -140.1456311 261.02797363 -141.625 262 C-142.62716553 262.66999023 -143.62933105 263.33998047 -144.66186523 264.03027344 C-146.66535209 265.36818589 -148.67172762 266.70178407 -150.68115234 268.03076172 C-152.84234961 269.4601996 -154.99671602 270.89825858 -157.14453125 272.34765625 C-166.94960703 278.94252928 -176.8607448 285.37893381 -186.74975586 291.84692383 C-193.02103279 295.9500415 -199.28188556 300.0665672 -205.5 304.25 C-211.84205224 308.50290562 -218.28880876 312.57956528 -224.77001953 316.61694336 C-228.36945603 318.86822031 -231.89038933 321.15353052 -235.3125 323.66796875 C-238.375 325.8125 -238.375 325.8125 -240.375 325.8125 C-240.375 326.4725 -240.375 327.1325 -240.375 327.8125 C-242.025 327.8125 -243.675 327.8125 -245.375 327.8125 C-269.27544314 277.81956125 -270.08236337 217.02639066 -252.2421875 165.03515625 C-251.62443945 163.29261616 -251.00211946 161.55168941 -250.375 159.8125 C-250.07754883 158.98089355 -249.78009766 158.14928711 -249.47363281 157.29248047 C-239.90034451 130.968525 -225.8169101 105.95245203 -207.375 84.8125 C-206.41871233 83.67604219 -205.46441576 82.53790707 -204.51171875 81.3984375 C-198.44539368 74.17768533 -192.16872329 67.36262365 -185.375 60.8125 C-184.385 59.8225 -184.385 59.8225 -183.375 58.8125 C-171.47987512 48.11388958 -158.18172311 38.65385562 -144.22314453 30.84814453 C-142.98700526 30.15544931 -141.75617457 29.45319786 -140.53076172 28.74169922 C-119.7034002 16.66323716 -96.86540266 8.76158238 -73.375 3.8125 C-72.63878418 3.64814453 -71.90256836 3.48378906 -71.14404297 3.31445312 C-48.0493907 -1.80183304 -23.456506 -2.22237676 0 0 Z M-28.375 211.8125 C-32.32287351 215.36457128 -34.26567655 218.84467785 -34.5625 224.1875 C-34.37965372 227.72252807 -34.1079031 229.75928977 -32.375 232.8125 C-28.04115167 236.7129635 -25.43883657 238.13739057 -19.53515625 238.01953125 C-15.38077982 237.62137221 -11.85950495 236.50720034 -9.05078125 233.30078125 C-6.41068039 229.1785185 -5.67198881 225.7335783 -6.375 220.8125 C-7.79308533 217.1421615 -9.62653865 214.40339054 -12.75 211.9375 C-18.44184366 209.49813843 -22.61060426 209.40193451 -28.375 211.8125 Z M-35.75 332.875 C-38.13184839 337.18064902 -38.26765847 341.00291773 -37.375 345.8125 C-35.69133518 349.1867299 -33.30262722 351.21984927 -30.125 353.25 C-26.0399708 354.08557416 -22.39639225 353.94374464 -18.375 352.8125 C-14.72218127 350.01459629 -12.42368834 347.32185987 -11.375 342.8125 C-11.21639579 338.23163731 -11.77496665 335.55848741 -14.6875 331.9375 C-22.08332559 326.0896379 -28.51873324 326.59521571 -35.75 332.875 Z M-38.375 441.8125 C-40.78636974 445.48836851 -41.64726503 448.93327939 -41.015625 453.29296875 C-39.98587212 456.79984939 -38.97533999 459.21216001 -36.375 461.8125 C-31.56408664 464.21795668 -26.53339368 464.85070466 -21.40234375 463.1640625 C-17.89521774 461.42166869 -16.47004623 459.96695013 -14.375 456.5625 C-13.12822302 451.88708633 -13.23725421 449.51518261 -14.375 444.8125 C-16.35220146 441.44393456 -17.69829127 440.12143225 -21.25 438.5 C-27.76496728 437.0667072 -33.08545587 437.49734558 -38.375 441.8125 Z " fill="#3D56FE" transform="translate(520.375,204.1875)"/>
<path d="M0 0 C2.97 0.495 2.97 0.495 6 1 C4.125 1.625 4.125 1.625 2 2 C1.34 1.34 0.68 0.68 0 0 Z " fill="#4F52F6" transform="translate(472,693)"/>
<path d="" fill="#5550F1" transform="translate(0,0)"/>
<path d="" fill="#5052F4" transform="translate(0,0)"/>
<path d="" fill="#306FF6" transform="translate(0,0)"/>
<path d="M0 0 C3 1 3 1 3 1 Z " fill="#2677F6" transform="translate(553,208)"/>
<path d="M0 0 C3 1 3 1 3 1 Z " fill="#267BF8" transform="translate(439,208)"/>
<path d="M0 0 C2 1 2 1 2 1 Z " fill="#5752F5" transform="translate(555,725)"/>
<path d="" fill="#5553F8" transform="translate(0,0)"/>
<path d="" fill="#5553F7" transform="translate(0,0)"/>
<path d="M0 0 C2 1 2 1 2 1 Z " fill="#5652F8" transform="translate(633,682)"/>
<path d="" fill="#5452F8" transform="translate(0,0)"/>
<path d="" fill="#4F55F7" transform="translate(0,0)"/>
<path d="" fill="#4E55F6" transform="translate(0,0)"/>
<path d="" fill="#4F56F6" transform="translate(0,0)"/>
<path d="M0 0 C2 1 2 1 2 1 Z " fill="#4A56F8" transform="translate(513,617)"/>
<path d="M0 0 C2 1 2 1 2 1 Z " fill="#445AF7" transform="translate(525,583)"/>
<path d="M0 0 C2 1 2 1 2 1 Z " fill="#455AFA" transform="translate(532,582)"/>
<path d="" fill="#3D5EFC" transform="translate(0,0)"/>
<path d="M0 0 C2 1 2 1 2 1 Z " fill="#405EF9" transform="translate(730,534)"/>
<path d="M0 0 C2 1 2 1 2 1 Z " fill="#3C5FFC" transform="translate(492,534)"/>
<path d="" fill="#3F5CF7" transform="translate(0,0)"/>
<path d="" fill="#3D5EFB" transform="translate(0,0)"/>
<path d="M0 0 C2 1 2 1 2 1 Z " fill="#3664FB" transform="translate(412,526)"/>
<path d="" fill="#3963FB" transform="translate(0,0)"/>
<path d="M0 0 C2 1 2 1 2 1 Z " fill="#3962FB" transform="translate(505,504)"/>
<path d="M0 0 C2 1 2 1 2 1 Z " fill="#3663FA" transform="translate(486,504)"/>
<path d="M0 0 C2 1 2 1 2 1 Z " fill="#326DF4" transform="translate(257,480)"/>
<path d="" fill="#316EF4" transform="translate(0,0)"/>
<path d="M0 0 C2 1 2 1 2 1 Z " fill="#306DFA" transform="translate(419,449)"/>
<path d="M0 0 C2 1 2 1 2 1 Z " fill="#2D72FA" transform="translate(337,448)"/>
<path d="M0 0 C2 1 2 1 2 1 Z " fill="#316BFC" transform="translate(499,440)"/>
<path d="" fill="#3269FB" transform="translate(0,0)"/>
<path d="M0 0 C2 1 2 1 2 1 Z " fill="#2A75FB" transform="translate(300,415)"/>
<path d="" fill="#2974FB" transform="translate(0,0)"/>
<path d="" fill="#326BF9" transform="translate(0,0)"/>
<path d="" fill="#316BF6" transform="translate(0,0)"/>
<path d="M0 0 C2 1 2 1 2 1 Z " fill="#2577FB" transform="translate(409,328)"/>
<path d="M0 0 C2 1 2 1 2 1 Z " fill="#2577FC" transform="translate(451,305)"/>
<path d="M0 0 C2 1 2 1 2 1 Z " fill="#2773F6" transform="translate(661,264)"/>
<path d="M0 0 C2 1 2 1 2 1 Z " fill="#2478FC" transform="translate(546,253)"/>
<path d="M0 0 C2 1 2 1 2 1 Z " fill="#2578F7" transform="translate(353,248)"/>
<path d="M0 0 C2 1 2 1 2 1 Z " fill="#267AF7" transform="translate(393,224)"/>
<path d="M0 0 C2 1 2 1 2 1 Z " fill="#2778F7" transform="translate(587,218)"/>
<path d="" fill="#4C4EE1" transform="translate(0,0)"/>
<path d="" fill="#5550F3" transform="translate(0,0)"/>
<path d="" fill="#4D4EE5" transform="translate(0,0)"/>
<path d="" fill="#5550F5" transform="translate(0,0)"/>
<path d="" fill="#5550F6" transform="translate(0,0)"/>
<path d="" fill="#5451F3" transform="translate(0,0)"/>
<path d="" fill="#5653F3" transform="translate(0,0)"/>
<path d="" fill="#5550F6" transform="translate(0,0)"/>
<path d="" fill="#534EF5" transform="translate(0,0)"/>
<path d="" fill="#544EF4" transform="translate(0,0)"/>
<path d="" fill="#5753F6" transform="translate(0,0)"/>
<path d="" fill="#554FF3" transform="translate(0,0)"/>
<path d="" fill="#544EF3" transform="translate(0,0)"/>
<path d="" fill="#5550F2" transform="translate(0,0)"/>
<path d="" fill="#524EEA" transform="translate(0,0)"/>
<path d="" fill="#4E54F9" transform="translate(0,0)"/>
<path d="" fill="#4E54F7" transform="translate(0,0)"/>
<path d="" fill="#5054F6" transform="translate(0,0)"/>
<path d="" fill="#5554F7" transform="translate(0,0)"/>
<path d="" fill="#4C58F1" transform="translate(0,0)"/>
<path d="" fill="#5552F8" transform="translate(0,0)"/>
<path d="" fill="#5654F9" transform="translate(0,0)"/>
<path d="" fill="#4D58F3" transform="translate(0,0)"/>
<path d="" fill="#5453F8" transform="translate(0,0)"/>
<path d="" fill="#5653F8" transform="translate(0,0)"/>
<path d="" fill="#5354F5" transform="translate(0,0)"/>
<path d="" fill="#4F55F7" transform="translate(0,0)"/>
<path d="" fill="#4E55F9" transform="translate(0,0)"/>
<path d="" fill="#5552F8" transform="translate(0,0)"/>
<path d="" fill="#5554F8" transform="translate(0,0)"/>
<path d="" fill="#4959F3" transform="translate(0,0)"/>
<path d="" fill="#4D54F8" transform="translate(0,0)"/>
<path d="" fill="#4E53FA" transform="translate(0,0)"/>
<path d="" fill="#4F54F9" transform="translate(0,0)"/>
<path d="" fill="#4D52F8" transform="translate(0,0)"/>
<path d="" fill="#4F54F9" transform="translate(0,0)"/>
<path d="" fill="#4E54F7" transform="translate(0,0)"/>
<path d="" fill="#4F54F9" transform="translate(0,0)"/>
<path d="" fill="#465AF3" transform="translate(0,0)"/>
<path d="" fill="#4F55FA" transform="translate(0,0)"/>
<path d="" fill="#5053F1" transform="translate(0,0)"/>
<path d="" fill="#455AF4" transform="translate(0,0)"/>
<path d="" fill="#4E54F9" transform="translate(0,0)"/>
<path d="" fill="#4C53F8" transform="translate(0,0)"/>
<path d="" fill="#4D54F9" transform="translate(0,0)"/>
<path d="" fill="#435DF5" transform="translate(0,0)"/>
<path d="" fill="#4A57F8" transform="translate(0,0)"/>
<path d="" fill="#5055F5" transform="translate(0,0)"/>
<path d="" fill="#4D56F8" transform="translate(0,0)"/>
<path d="" fill="#415EF6" transform="translate(0,0)"/>
<path d="" fill="#4D56F8" transform="translate(0,0)"/>
<path d="" fill="#4E54F4" transform="translate(0,0)"/>
<path d="" fill="#4E55F4" transform="translate(0,0)"/>
<path d="" fill="#4359F9" transform="translate(0,0)"/>
<path d="" fill="#4857F7" transform="translate(0,0)"/>
<path d="" fill="#4C56F5" transform="translate(0,0)"/>
<path d="" fill="#4259F7" transform="translate(0,0)"/>
<path d="" fill="#3F5EF3" transform="translate(0,0)"/>
<path d="" fill="#445AF9" transform="translate(0,0)"/>
<path d="" fill="#4D56F5" transform="translate(0,0)"/>
<path d="" fill="#435AFA" transform="translate(0,0)"/>
<path d="" fill="#4B56FA" transform="translate(0,0)"/>
<path d="" fill="#4A57FA" transform="translate(0,0)"/>
<path d="" fill="#3E60F6" transform="translate(0,0)"/>
<path d="" fill="#4C56F8" transform="translate(0,0)"/>
<path d="" fill="#425AF9" transform="translate(0,0)"/>
<path d="" fill="#4957F9" transform="translate(0,0)"/>
<path d="" fill="#3A62F7" transform="translate(0,0)"/>
<path d="" fill="#3D60FC" transform="translate(0,0)"/>
<path d="" fill="#3C61F6" transform="translate(0,0)"/>
<path d="" fill="#445CFB" transform="translate(0,0)"/>
<path d="" fill="#4958F7" transform="translate(0,0)"/>
<path d="" fill="#3A61FC" transform="translate(0,0)"/>
<path d="" fill="#4659F4" transform="translate(0,0)"/>
<path d="" fill="#485AF5" transform="translate(0,0)"/>
<path d="" fill="#425CFA" transform="translate(0,0)"/>
<path d="" fill="#465BF8" transform="translate(0,0)"/>
<path d="" fill="#415BFA" transform="translate(0,0)"/>
<path d="" fill="#495BF3" transform="translate(0,0)"/>
<path d="" fill="#3B67F6" transform="translate(0,0)"/>
<path d="" fill="#3D61FD" transform="translate(0,0)"/>
<path d="" fill="#3B66F5" transform="translate(0,0)"/>
<path d="" fill="#4659F6" transform="translate(0,0)"/>
<path d="" fill="#465AF2" transform="translate(0,0)"/>
<path d="" fill="#3965FA" transform="translate(0,0)"/>
<path d="" fill="#3A65F9" transform="translate(0,0)"/>
<path d="" fill="#3D5FFC" transform="translate(0,0)"/>
<path d="" fill="#455BEF" transform="translate(0,0)"/>
<path d="" fill="#3A65FB" transform="translate(0,0)"/>
<path d="" fill="#3765FD" transform="translate(0,0)"/>
<path d="" fill="#425AF9" transform="translate(0,0)"/>
<path d="" fill="#3764FB" transform="translate(0,0)"/>
<path d="" fill="#455CFA" transform="translate(0,0)"/>
<path d="" fill="#3E5CF8" transform="translate(0,0)"/>
<path d="" fill="#3E5EFD" transform="translate(0,0)"/>
<path d="" fill="#445DFA" transform="translate(0,0)"/>
<path d="" fill="#3E5EFD" transform="translate(0,0)"/>
<path d="" fill="#435DF9" transform="translate(0,0)"/>
<path d="" fill="#3E5EFD" transform="translate(0,0)"/>
<path d="" fill="#3F5FFC" transform="translate(0,0)"/>
<path d="" fill="#3D62FD" transform="translate(0,0)"/>
<path d="" fill="#3865FD" transform="translate(0,0)"/>
<path d="" fill="#3864FB" transform="translate(0,0)"/>
<path d="" fill="#3E61FC" transform="translate(0,0)"/>
<path d="" fill="#3966FB" transform="translate(0,0)"/>
<path d="" fill="#3B60FB" transform="translate(0,0)"/>
<path d="" fill="#425EFA" transform="translate(0,0)"/>
<path d="" fill="#3D60FC" transform="translate(0,0)"/>
<path d="" fill="#3763F9" transform="translate(0,0)"/>
<path d="" fill="#3B60FD" transform="translate(0,0)"/>
<path d="" fill="#3C5FFB" transform="translate(0,0)"/>
<path d="" fill="#3F60FC" transform="translate(0,0)"/>
<path d="" fill="#3E60FC" transform="translate(0,0)"/>
<path d="" fill="#3D5FFB" transform="translate(0,0)"/>
<path d="" fill="#425CF2" transform="translate(0,0)"/>
<path d="" fill="#3E5FFC" transform="translate(0,0)"/>
<path d="" fill="#405EF4" transform="translate(0,0)"/>
<path d="" fill="#3D5FF9" transform="translate(0,0)"/>
<path d="" fill="#3E60FC" transform="translate(0,0)"/>
<path d="" fill="#336AFA" transform="translate(0,0)"/>
<path d="" fill="#336AFD" transform="translate(0,0)"/>
<path d="" fill="#405FFA" transform="translate(0,0)"/>
<path d="" fill="#346BF8" transform="translate(0,0)"/>
<path d="" fill="#356CF5" transform="translate(0,0)"/>
<path d="" fill="#3D60FA" transform="translate(0,0)"/>
<path d="" fill="#336AF5" transform="translate(0,0)"/>
<path d="" fill="#3764FB" transform="translate(0,0)"/>
<path d="" fill="#336AF4" transform="translate(0,0)"/>
<path d="" fill="#346AF4" transform="translate(0,0)"/>
<path d="" fill="#3D60FA" transform="translate(0,0)"/>
<path d="" fill="#326BFE" transform="translate(0,0)"/>
<path d="" fill="#3E63F9" transform="translate(0,0)"/>
<path d="" fill="#336BF6" transform="translate(0,0)"/>
<path d="" fill="#3666FC" transform="translate(0,0)"/>
<path d="" fill="#3864FB" transform="translate(0,0)"/>
<path d="" fill="#346AFB" transform="translate(0,0)"/>
<path d="" fill="#3C60F8" transform="translate(0,0)"/>
<path d="" fill="#2F6CFC" transform="translate(0,0)"/>
<path d="" fill="#3C62F8" transform="translate(0,0)"/>
<path d="" fill="#316EFA" transform="translate(0,0)"/>
<path d="" fill="#3C60F5" transform="translate(0,0)"/>
<path d="" fill="#3D61F9" transform="translate(0,0)"/>
<path d="" fill="#346EF5" transform="translate(0,0)"/>
<path d="" fill="#336BFB" transform="translate(0,0)"/>
<path d="" fill="#346DF4" transform="translate(0,0)"/>
<path d="" fill="#326EFC" transform="translate(0,0)"/>
<path d="" fill="#326CFC" transform="translate(0,0)"/>
<path d="" fill="#3E64F8" transform="translate(0,0)"/>
<path d="" fill="#3B63FA" transform="translate(0,0)"/>
<path d="" fill="#306DFB" transform="translate(0,0)"/>
<path d="" fill="#326EF5" transform="translate(0,0)"/>
<path d="" fill="#3A64FA" transform="translate(0,0)"/>
<path d="" fill="#326BFB" transform="translate(0,0)"/>
<path d="" fill="#316BFC" transform="translate(0,0)"/>
<path d="" fill="#3964FB" transform="translate(0,0)"/>
<path d="" fill="#306EFC" transform="translate(0,0)"/>
<path d="" fill="#2E71FB" transform="translate(0,0)"/>
<path d="" fill="#3864FB" transform="translate(0,0)"/>
<path d="" fill="#2C71FA" transform="translate(0,0)"/>
<path d="" fill="#3765FD" transform="translate(0,0)"/>
<path d="" fill="#3367FA" transform="translate(0,0)"/>
<path d="" fill="#306DFD" transform="translate(0,0)"/>
<path d="" fill="#3465F9" transform="translate(0,0)"/>
<path d="" fill="#3267FB" transform="translate(0,0)"/>
<path d="" fill="#3965FB" transform="translate(0,0)"/>
<path d="" fill="#3367F8" transform="translate(0,0)"/>
<path d="" fill="#3864F9" transform="translate(0,0)"/>
<path d="" fill="#3763F5" transform="translate(0,0)"/>
<path d="" fill="#3274F8" transform="translate(0,0)"/>
<path d="" fill="#2D70FA" transform="translate(0,0)"/>
<path d="" fill="#2D71FC" transform="translate(0,0)"/>
<path d="" fill="#3768F9" transform="translate(0,0)"/>
<path d="" fill="#3269FB" transform="translate(0,0)"/>
<path d="" fill="#2F6CFB" transform="translate(0,0)"/>
<path d="" fill="#326EFC" transform="translate(0,0)"/>
<path d="" fill="#2C73FC" transform="translate(0,0)"/>
<path d="" fill="#326AFA" transform="translate(0,0)"/>
<path d="" fill="#326AFB" transform="translate(0,0)"/>
<path d="" fill="#3269FB" transform="translate(0,0)"/>
<path d="" fill="#2C6FFA" transform="translate(0,0)"/>
<path d="" fill="#2F71FC" transform="translate(0,0)"/>
<path d="" fill="#316BFB" transform="translate(0,0)"/>
<path d="" fill="#2F6BFA" transform="translate(0,0)"/>
<path d="" fill="#2C6FFC" transform="translate(0,0)"/>
<path d="" fill="#336CFC" transform="translate(0,0)"/>
<path d="" fill="#2F71FC" transform="translate(0,0)"/>
<path d="" fill="#326AFA" transform="translate(0,0)"/>
<path d="" fill="#326AFA" transform="translate(0,0)"/>
<path d="" fill="#2F6DFB" transform="translate(0,0)"/>
<path d="" fill="#306CF9" transform="translate(0,0)"/>
<path d="" fill="#3169F8" transform="translate(0,0)"/>
<path d="" fill="#3269F5" transform="translate(0,0)"/>
<path d="" fill="#2D70F9" transform="translate(0,0)"/>
<path d="" fill="#2C75F6" transform="translate(0,0)"/>
<path d="" fill="#2C6FFA" transform="translate(0,0)"/>
<path d="" fill="#2D6CFA" transform="translate(0,0)"/>
<path d="" fill="#2B70F7" transform="translate(0,0)"/>
<path d="" fill="#2C6EFB" transform="translate(0,0)"/>
<path d="" fill="#2C6DFC" transform="translate(0,0)"/>
<path d="" fill="#2D71FC" transform="translate(0,0)"/>
<path d="" fill="#2B70FA" transform="translate(0,0)"/>
<path d="" fill="#2B70FC" transform="translate(0,0)"/>
<path d="" fill="#2E6DFB" transform="translate(0,0)"/>
<path d="" fill="#2C6DF9" transform="translate(0,0)"/>
<path d="" fill="#2D6EFB" transform="translate(0,0)"/>
<path d="" fill="#2B6DF9" transform="translate(0,0)"/>
<path d="" fill="#306BF5" transform="translate(0,0)"/>
<path d="" fill="#2B76F4" transform="translate(0,0)"/>
<path d="" fill="#306BF5" transform="translate(0,0)"/>
<path d="" fill="#2678FA" transform="translate(0,0)"/>
<path d="" fill="#2B6EFB" transform="translate(0,0)"/>
<path d="" fill="#2A6DF8" transform="translate(0,0)"/>
<path d="" fill="#2873FC" transform="translate(0,0)"/>
<path d="" fill="#2B6FFB" transform="translate(0,0)"/>
<path d="" fill="#2975F5" transform="translate(0,0)"/>
<path d="" fill="#2776FB" transform="translate(0,0)"/>
<path d="" fill="#2672F8" transform="translate(0,0)"/>
<path d="" fill="#2776FB" transform="translate(0,0)"/>
<path d="" fill="#2875FA" transform="translate(0,0)"/>
<path d="" fill="#2875F5" transform="translate(0,0)"/>
<path d="" fill="#2875F4" transform="translate(0,0)"/>
<path d="" fill="#2870FB" transform="translate(0,0)"/>
<path d="" fill="#296EFB" transform="translate(0,0)"/>
<path d="" fill="#2972FD" transform="translate(0,0)"/>
<path d="" fill="#2677FB" transform="translate(0,0)"/>
<path d="" fill="#2972FD" transform="translate(0,0)"/>
<path d="" fill="#2674FA" transform="translate(0,0)"/>
<path d="" fill="#2871FB" transform="translate(0,0)"/>
<path d="" fill="#247AFA" transform="translate(0,0)"/>
<path d="" fill="#2578FC" transform="translate(0,0)"/>
<path d="" fill="#2A6DF6" transform="translate(0,0)"/>
<path d="" fill="#2876F5" transform="translate(0,0)"/>
<path d="" fill="#2874FC" transform="translate(0,0)"/>
<path d="" fill="#2577FC" transform="translate(0,0)"/>
<path d="" fill="#2B6FF4" transform="translate(0,0)"/>
<path d="" fill="#2672FC" transform="translate(0,0)"/>
<path d="" fill="#2872FC" transform="translate(0,0)"/>
<path d="" fill="#2872FD" transform="translate(0,0)"/>
<path d="" fill="#2C6FF3" transform="translate(0,0)"/>
<path d="" fill="#2574FA" transform="translate(0,0)"/>
<path d="" fill="#2576FB" transform="translate(0,0)"/>
<path d="" fill="#2379FC" transform="translate(0,0)"/>
<path d="" fill="#2774FD" transform="translate(0,0)"/>
<path d="" fill="#2678FC" transform="translate(0,0)"/>
<path d="" fill="#2875F5" transform="translate(0,0)"/>
<path d="" fill="#257AFB" transform="translate(0,0)"/>
<path d="" fill="#2678F5" transform="translate(0,0)"/>
<path d="" fill="#2674FB" transform="translate(0,0)"/>
<path d="" fill="#2675FD" transform="translate(0,0)"/>
<path d="" fill="#2579F7" transform="translate(0,0)"/>
<path d="" fill="#2574F9" transform="translate(0,0)"/>
<path d="" fill="#2577FE" transform="translate(0,0)"/>
<path d="" fill="#2379FB" transform="translate(0,0)"/>
<path d="" fill="#2678FD" transform="translate(0,0)"/>
<path d="" fill="#2579FE" transform="translate(0,0)"/>
<path d="" fill="#2178FB" transform="translate(0,0)"/>
<path d="" fill="#2378FD" transform="translate(0,0)"/>
<path d="" fill="#2679F7" transform="translate(0,0)"/>
<path d="" fill="#237BF8" transform="translate(0,0)"/>
<path d="" fill="#2775F6" transform="translate(0,0)"/>
<path d="" fill="#2776F6" transform="translate(0,0)"/>
<path d="" fill="#267CFA" transform="translate(0,0)"/>
<path d="" fill="#227DF7" transform="translate(0,0)"/>
<path d="" fill="#257BF8" transform="translate(0,0)"/>
</svg>
